<svg height="512" viewBox="0 0 416.449 416.449" width="512" xmlns="http://www.w3.org/2000/svg"><path d="m399.76 16.699c10.12 37.84 8.67 78.13-4.34 115.28h-.01l-110.93-110.93v-.01c37.15-13.01 77.44-14.46 115.28-4.34z" fill="#ff7124"/><path d="m90.21 207.929 87.14-101.42h.01l33.71-39.24c21.43-21.43 46.6-36.84 73.41-46.23v.01l110.93 110.93h.01c-9.39 26.81-24.8 51.98-46.23 73.41l-39.24 33.71-101.43 87.14-29.57-29.57-29.58-29.58-29.58-29.58zm205.9-14.53c20.18-20.17 20.18-52.89 0-73.06-20.17-20.18-52.89-20.18-73.06 0-20.18 20.17-20.18 52.89 0 73.06 20.17 20.18 52.89 20.18 73.06 0z" fill="#f2d59f"/><path d="m309.95 239.099c1.74 45.6-14.8 91.78-49.61 126.59-10.69 10.68-22.44 19.65-34.93 26.89l-16.89-66.34z" fill="#f2d59f"/><path d="m296.11 120.339c20.18 20.17 20.18 52.89 0 73.06-20.17 20.18-52.89 20.18-73.06 0-20.18-20.17-20.18-52.89 0-73.06 20.17-20.18 52.89-20.18 73.06 0z" fill="#8ecac1"/><path d="m208.52 326.239-39.94 14.71c-10.98 4.05-23.31 1.34-31.58-6.94l-6.85-6.85 48.8-30.49z" fill="#e6b263"/><path d="m178.95 296.669-48.8 30.49h-.01l-20.42-20.42 39.65-39.65z" fill="#e6b263"/><path d="m177.35 106.509-87.14 101.42-66.33-16.88c7.24-12.49 16.21-24.24 26.89-34.93 34.81-34.81 80.97-51.35 126.58-49.61z" fill="#f2d59f"/><path d="m149.37 267.089-39.65 39.65-20.42-20.43 30.49-48.8z" fill="#e6b263"/><path d="m119.79 237.509-30.49 48.8-6.86-6.85c-8.27-8.28-10.98-20.6-6.94-31.58l14.71-39.95z" fill="#e6b263"/><g fill="#5e2a41"><path d="m28.88 339.459c-2.559 0-5.119-.977-7.071-2.929-3.905-3.905-3.905-10.237 0-14.143l20.54-20.54c3.905-3.904 10.237-3.904 14.143 0 3.905 3.905 3.905 10.237 0 14.143l-20.54 20.54c-1.953 1.952-4.512 2.929-7.072 2.929z"/><path d="m10 416.439c-2.56 0-5.119-.977-7.072-2.93-3.905-3.905-3.904-10.237.001-14.142l68.47-68.46c3.905-3.904 10.237-3.904 14.142.001s3.904 10.237-.002 14.142l-68.47 68.46c-1.951 1.953-4.51 2.929-7.069 2.929z"/><path d="m73.29 411.259c-2.56 0-5.118-.977-7.071-2.929-3.905-3.905-3.905-10.237 0-14.143l34.23-34.229c3.905-3.904 10.237-3.903 14.142 0 3.905 3.905 3.905 10.237 0 14.143l-34.23 34.229c-1.952 1.952-4.512 2.929-7.071 2.929z"/><path d="m208.52 336.239c-2.56 0-5.118-.977-7.071-2.929l-118.31-118.31c-3.905-3.905-3.905-10.237 0-14.143 3.905-3.904 10.237-3.904 14.143 0l118.31 118.311c3.905 3.905 3.905 10.237 0 14.143-1.953 1.952-4.513 2.928-7.072 2.928z"/><path d="m259.58 218.534c-16.474 0-31.959-6.416-43.604-18.066-11.646-11.641-18.062-27.126-18.062-43.6s6.416-31.959 18.065-43.604c11.641-11.646 27.126-18.062 43.6-18.062s31.959 6.416 43.604 18.065c11.645 11.641 18.061 27.126 18.061 43.6 0 16.472-6.415 31.956-18.061 43.6-.001.002-.001.001-.004.004-11.643 11.648-27.127 18.063-43.599 18.063zm0-103.33c-11.13 0-21.592 4.334-29.457 12.204-7.874 7.869-12.208 18.331-12.208 29.461s4.334 21.592 12.204 29.457c7.869 7.874 18.331 12.208 29.461 12.208s21.592-4.334 29.457-12.204c.002-.001.003-.002.004-.004 7.87-7.865 12.204-18.327 12.204-29.457s-4.334-21.592-12.204-29.457c-7.869-7.874-18.331-12.208-29.461-12.208z"/><path d="m89.291 296.31c-1.81 0-3.642-.49-5.29-1.521-4.684-2.926-6.108-9.096-3.182-13.779l30.49-48.8c2.927-4.684 9.097-6.11 13.78-3.182 4.684 2.926 6.108 9.096 3.182 13.779l-30.49 48.8c-1.897 3.036-5.156 4.703-8.49 4.703z"/><path d="m109.72 316.739c-2.559 0-5.118-.977-7.071-2.929-3.905-3.905-3.906-10.237-.001-14.143l39.65-39.65c3.905-3.904 10.237-3.904 14.142 0 3.905 3.905 3.906 10.237.001 14.142l-39.65 39.65c-1.952 1.954-4.512 2.93-7.071 2.93z"/><path d="m130.16 337.16c-3.334 0-6.593-1.666-8.49-4.702-2.926-4.684-1.501-10.854 3.182-13.779l48.8-30.49c4.683-2.929 10.853-1.503 13.78 3.182 2.926 4.684 1.501 10.853-3.182 13.779l-48.8 30.49c-1.649 1.03-3.48 1.52-5.29 1.52z"/><path d="m177.356 116.509c-2.307 0-4.625-.794-6.512-2.415-4.189-3.599-4.668-9.912-1.069-14.102l33.71-39.24c3.598-4.188 9.911-4.668 14.102-1.068 4.189 3.599 4.668 9.912 1.068 14.101l-33.71 39.24c-1.977 2.302-4.775 3.484-7.589 3.484z"/><path d="m158.265 352.787c-10.448 0-20.723-4.085-28.34-11.712l-6.582-6.582c-.093-.086-.184-.173-.273-.263l-47.694-47.695c-10.992-11.006-14.623-27.531-9.259-42.109l14.71-39.952c.413-1.12 1.022-2.157 1.799-3.061l87.14-101.42c3.601-4.188 9.913-4.667 14.102-1.068 4.189 3.6 4.667 9.913 1.068 14.102l-85.965 100.05-14.086 38.257c-2.682 7.289-.864 15.556 4.632 21.059l47.432 47.433c.092.086.184.173.273.263l6.85 6.85c5.497 5.504 13.756 7.318 21.048 4.63l38.252-14.089 139.302-119.675c4.191-3.6 10.504-3.119 14.102 1.068 3.6 4.189 3.121 10.503-1.068 14.102l-140.672 120.849c-.904.777-1.94 1.387-3.059 1.799l-39.941 14.71c-4.479 1.652-9.143 2.454-13.771 2.454z"/><path d="m349.19 215.389c-2.559 0-5.118-.977-7.071-2.929-3.905-3.905-3.905-10.237 0-14.143 19.885-19.884 34.642-43.315 43.863-69.644 11.736-33.512 13.626-69.25 5.536-103.733-34.48-8.089-70.221-6.199-103.733 5.536-26.329 9.221-49.761 23.979-69.645 43.863-3.905 3.904-10.236 3.905-14.143 0-3.905-3.905-3.905-10.237 0-14.143 22.025-22.024 47.991-38.375 77.176-48.596 39.158-13.711 81.058-15.29 121.171-4.561 3.454.924 6.152 3.622 7.076 7.076 10.728 40.114 9.151 82.014-4.563 121.17-10.221 29.185-26.571 55.15-48.596 77.175-1.952 1.952-4.511 2.929-7.071 2.929z"/><path d="m395.41 141.98c-2.56 0-5.118-.977-7.071-2.929l-110.93-110.931c-3.905-3.905-3.905-10.237 0-14.143 3.908-3.905 10.238-3.903 14.143 0l110.93 110.931c3.905 3.905 3.905 10.237 0 14.143-1.954 1.952-4.513 2.929-7.072 2.929z"/><path d="m90.22 217.929c-.832 0-1.67-.104-2.477-.309l-66.33-16.88c-3.037-.773-5.537-2.926-6.751-5.814-1.215-2.889-1.005-6.181.566-8.892 7.778-13.418 17.355-25.86 28.467-36.982 35.281-35.281 84.119-54.445 133.988-52.537 5.369.176 9.671 4.583 9.671 9.994 0 5.522-4.472 10-9.995 10h-.01c-.127 0-.254-.002-.381-.007-44.338-1.699-87.765 15.325-119.127 46.688-6.684 6.689-12.742 13.914-18.101 21.576l52.73 13.419c4.435 1.024 7.745 4.998 7.745 9.743 0 5.523-4.472 10.001-9.995 10.001z"/><path d="m225.41 402.579c-1.315 0-2.633-.259-3.876-.782-2.89-1.215-5.042-3.714-5.815-6.75l-16.891-66.34c-1.363-5.353 1.872-10.796 7.224-12.158 5.349-1.366 10.795 1.871 12.158 7.223l13.48 52.948c7.663-5.359 14.889-11.419 21.581-18.104 31.36-31.36 48.378-74.785 46.684-119.136-.21-5.519 4.093-10.163 9.611-10.374 5.509-.233 10.164 4.093 10.375 9.611 1.903 49.897-17.243 98.755-52.532 134.044-11.124 11.113-23.567 20.691-36.986 28.47-1.542.895-3.275 1.348-5.013 1.348z"/></g></svg>